<svg width="27" height="23" viewBox="0 0 27 23" fill="none" xmlns="http://www.w3.org/2000/svg">
<path d="M27 22.0316V14.1574C26.997 11.4732 25.9294 8.89989 24.0315 7.00191C22.1335 5.10394 19.5601 4.03635 16.876 4.03337H11.4428V2.2493C11.4427 1.8044 11.3107 1.36953 11.0635 0.999641C10.8163 0.629755 10.4649 0.341469 10.0539 0.171228C9.64285 0.000987336 9.19057 -0.0435648 8.75422 0.0432037C8.31787 0.129972 7.91704 0.344166 7.60241 0.658706L0.988054 7.27193C0.355402 7.90477 -1.90735e-06 8.76298 -1.90735e-06 9.65782C-1.90735e-06 10.5527 0.355402 11.4109 0.988054 12.0437L7.60241 18.6569C7.91704 18.9715 8.31787 19.1857 8.75422 19.2724C9.19057 19.3592 9.64285 19.3147 10.0539 19.1444C10.4649 18.9742 10.8163 18.6859 11.0635 18.316C11.3107 17.9461 11.4427 17.5112 11.4428 17.0663V15.2823H18.0009C19.7904 15.2841 21.5061 15.9957 22.7714 17.2611C24.0368 18.5264 24.7484 20.2421 24.7502 22.0316C24.7502 22.3299 24.8687 22.6161 25.0797 22.827C25.2907 23.038 25.5768 23.1565 25.8751 23.1565C26.1734 23.1565 26.4596 23.038 26.6705 22.827C26.8815 22.6161 27 22.3299 27 22.0316ZM9.193 5.15826C9.193 5.4566 9.31151 5.74272 9.52247 5.95368C9.73343 6.16464 10.0195 6.28315 10.3179 6.28315H16.876C18.9636 6.28553 20.9651 7.1159 22.4413 8.59209C23.9175 10.0683 24.7478 12.0697 24.7502 14.1574V16.0854C23.907 15.1258 22.8689 14.3572 21.705 13.8307C20.5411 13.3042 19.2783 13.0321 18.0009 13.0325H10.3179C10.0195 13.0325 9.73343 13.151 9.52247 13.362C9.31151 13.5729 9.193 13.859 9.193 14.1574V17.0663L2.57977 10.4531C2.36889 10.2422 2.25042 9.9561 2.25042 9.65782C2.25042 9.35954 2.36889 9.07347 2.57977 8.86252L9.193 2.2493V5.15826Z" fill="#8B5C00"/>
</svg>
