<svg width="15" height="28" viewBox="0 0 15 28" fill="none" xmlns="http://www.w3.org/2000/svg">
<path d="M12.5167 9.93667L3.71916 1.13917C3.36004 0.782189 2.87426 0.581818 2.3679 0.581818C1.86155 0.581818 1.37577 0.782189 1.01665 1.13917C0.837008 1.31735 0.694419 1.52933 0.597112 1.7629C0.499806 1.99646 0.449707 2.24698 0.449707 2.5C0.449707 2.75303 0.499806 3.00355 0.597112 3.23711C0.694419 3.47067 0.837008 3.68266 1.01665 3.86084L9.83332 12.6392C10.013 12.8173 10.1556 13.0293 10.2529 13.2629C10.3502 13.4965 10.4003 13.747 10.4003 14C10.4003 14.253 10.3502 14.5035 10.2529 14.7371C10.1556 14.9707 10.013 15.1827 9.83332 15.3608L1.01665 24.1392C0.655738 24.4975 0.451969 24.9846 0.450171 25.4932C0.448374 26.0018 0.648698 26.4903 1.00707 26.8513C1.36545 27.2122 1.85251 27.4159 2.36113 27.4177C2.86974 27.4195 3.35824 27.2192 3.71916 26.8608L12.5167 18.0633C13.5934 16.9852 14.1983 15.5238 14.1983 14C14.1983 12.4762 13.5934 11.0148 12.5167 9.93667Z" fill="#8B5C00"/>
</svg>
