<svg width="9" height="17" viewBox="0 0 9 17" fill="none" xmlns="http://www.w3.org/2000/svg">
<path d="M-1.52588e-05 8.50001C-0.00104809 9.50652 0.366813 10.4785 1.03399 11.2321C1.43411 11.6818 1.82324 12.108 2.10236 12.3871L5.98536 16.3375C6.10969 16.4748 6.26049 16.5856 6.4287 16.6632C6.59691 16.7408 6.77906 16.7836 6.96422 16.789C7.14938 16.7945 7.33374 16.7625 7.50622 16.6949C7.67869 16.6273 7.83574 16.5256 7.96792 16.3958C8.10011 16.266 8.20471 16.1109 8.27545 15.9397C8.34618 15.7685 8.38159 15.5847 8.37956 15.3995C8.37752 15.2143 8.33807 15.0314 8.26359 14.8618C8.18911 14.6922 8.08112 14.5393 7.94611 14.4125L4.05623 10.4525C3.79911 10.194 3.44986 9.80901 3.09374 9.40889C2.87217 9.1577 2.74991 8.83427 2.74991 8.49933C2.74991 8.16438 2.87217 7.84095 3.09374 7.58976C3.44849 7.19101 3.79774 6.80601 4.04661 6.55576L7.94611 2.58751C8.08112 2.46068 8.18911 2.30787 8.26359 2.13826C8.33807 1.96865 8.37752 1.78574 8.37956 1.60051C8.38159 1.41528 8.34618 1.23155 8.27545 1.06034C8.20471 0.889136 8.10011 0.733989 7.96792 0.604213C7.83574 0.474437 7.67869 0.37271 7.50622 0.305136C7.33374 0.237563 7.14938 0.205537 6.96422 0.210982C6.77906 0.216427 6.59691 0.259231 6.4287 0.336823C6.26049 0.414415 6.10969 0.525195 5.98536 0.662514L2.09549 4.62114C1.82049 4.89614 1.43549 5.31826 1.03811 5.76651C0.368794 6.51968 -0.000631332 7.49242 -1.52588e-05 8.50001Z" fill="#FFBE1B"/>
</svg>
