<svg width="43" height="43" viewBox="0 0 43 43" fill="none" xmlns="http://www.w3.org/2000/svg">
<path d="M13.4308 43C11.765 43 10.1529 42.4987 8.7737 41.514C7.30494 40.4757 6.23024 38.9718 5.72871 37.271C4.02709 36.7518 2.5225 35.6777 1.48362 34.2275C0.176065 32.3835 -0.289641 30.1277 0.176065 27.872C0.820888 24.7389 3.38227 22.2325 6.55265 21.6417C8.63041 21.2657 10.7261 21.6775 12.4635 22.8054L22.8703 12.5291C21.6702 10.7388 21.2582 8.6262 21.6343 6.54945C22.2075 3.38062 24.7152 0.820488 27.8676 0.175979C30.1066 -0.2895 32.3814 0.175979 34.2263 1.4829C35.6951 2.52127 36.7698 4.02513 37.2713 5.72592C38.9729 6.2451 40.4775 7.31928 41.5164 8.76943C42.8239 10.6134 43.2896 12.8692 42.8239 15.125C42.1791 18.258 39.6177 20.7645 36.4474 21.3552C34.3696 21.7312 32.2739 21.3194 30.5365 20.1916L20.1298 30.4679C21.3298 32.2582 21.7418 34.3707 21.3657 36.4475C20.7925 39.6163 18.2848 42.1765 15.1324 42.821C14.5592 42.9463 13.986 43 13.4308 43ZM8.05723 25.097C7.77065 25.097 7.48406 25.1149 7.19747 25.1686C5.47794 25.4908 4.045 26.8873 3.68677 28.5881C3.41809 29.8592 3.68677 31.1124 4.40324 32.1508C5.11971 33.1712 6.23024 33.8337 7.46615 33.9948C8.27218 34.1022 8.89909 34.7288 9.00656 35.5344C9.16776 36.7518 9.84841 37.8618 10.8515 38.578C11.8724 39.312 13.1442 39.5626 14.4159 39.2941C16.1175 38.936 17.5325 37.5038 17.837 35.7851C18.052 34.6214 17.837 33.4398 17.1922 32.473C16.225 30.9871 16.3862 29.1252 17.5863 27.9257L27.9393 17.5777C29.1394 16.3782 31.0201 16.2171 32.4889 17.1838C33.4561 17.8105 34.6383 18.0432 35.8025 17.8284C37.5221 17.5061 38.955 16.1097 39.3132 14.4089C39.5819 13.1378 39.3132 11.8846 38.5968 10.8462C37.8803 9.82571 36.7698 9.16329 35.5339 9.00217C34.7278 8.89475 34.1009 8.26814 33.9934 7.46251C33.8322 6.2451 33.1516 5.13512 32.1485 4.41899C31.1276 3.68497 29.8558 3.43433 28.5841 3.70287C26.8825 4.06093 25.4675 5.49318 25.163 7.21187C24.948 8.37556 25.163 9.55716 25.8078 10.5239C26.775 12.0099 26.6138 13.8718 25.4137 15.0713L15.0607 25.4192C13.8606 26.6187 11.9799 26.7799 10.5111 25.8131C9.77676 25.3297 8.93491 25.097 8.05723 25.097Z" fill="#8B5C00"/>
</svg>
