<svg width="24" height="24" viewBox="0 0 24 24" fill="none" xmlns="http://www.w3.org/2000/svg">
<path d="M23.3745 0.966569C23.1923 0.784422 22.9452 0.682098 22.6876 0.682098C22.4299 0.682098 22.1829 0.784422 22.0007 0.966569L12 10.9672L1.99937 0.966569C1.81717 0.784422 1.57009 0.682098 1.31245 0.682098C1.05482 0.682098 0.807736 0.784422 0.625535 0.966569C0.443389 1.14877 0.341064 1.39585 0.341064 1.65349C0.341064 1.91112 0.443389 2.1582 0.625535 2.34041L10.6262 12.341L0.625535 22.3417C0.443389 22.5239 0.341064 22.771 0.341064 23.0286C0.341064 23.2862 0.443389 23.5333 0.625535 23.7155C0.807736 23.8977 1.05482 24 1.31245 24C1.57009 24 1.81717 23.8977 1.99937 23.7155L12 13.7149L22.0007 23.7155C22.1829 23.8977 22.4299 24 22.6876 24C22.9452 24 23.1923 23.8977 23.3745 23.7155C23.5566 23.5333 23.659 23.2862 23.659 23.0286C23.659 22.771 23.5566 22.5239 23.3745 22.3417L13.3739 12.341L23.3745 2.34041C23.5566 2.1582 23.659 1.91112 23.659 1.65349C23.659 1.39585 23.5566 1.14877 23.3745 0.966569Z" fill="#8B5C00"/>
</svg>
