<svg width="24" height="26" viewBox="0 0 24 26" fill="none" xmlns="http://www.w3.org/2000/svg">
<path d="M20.7289 25.9962C20.3282 25.9951 19.9317 25.9146 19.5622 25.7594C19.1928 25.6042 18.8578 25.3772 18.5766 25.0918L11.9151 18.4692L5.25354 25.0961C4.82571 25.5302 4.27704 25.8253 3.67905 25.9429C3.08106 26.0606 2.46149 25.9954 1.90111 25.7558C1.33517 25.5281 0.851018 25.1351 0.511889 24.6281C0.17276 24.121 -0.00558838 23.5235 0.000133487 22.9135V5.41588C0.000133487 3.9795 0.570734 2.60195 1.58641 1.58628C2.60208 0.5706 3.97963 0 5.41601 0L18.4141 0C19.1254 0 19.8296 0.140086 20.4867 0.412259C21.1438 0.684433 21.7408 1.08336 22.2437 1.58628C22.7466 2.08919 23.1456 2.68623 23.4178 3.34331C23.6899 4.0004 23.83 4.70466 23.83 5.41588V22.9135C23.8361 23.523 23.6584 24.1202 23.32 24.6272C22.9817 25.1342 22.4985 25.5275 21.9334 25.7558C21.5519 25.9153 21.1424 25.9971 20.7289 25.9962ZM5.41601 2.16635C4.55419 2.16635 3.72766 2.50871 3.11825 3.11812C2.50885 3.72752 2.16649 4.55405 2.16649 5.41588V22.9135C2.16609 23.094 2.2192 23.2706 2.31911 23.4209C2.41901 23.5712 2.56122 23.6886 2.72778 23.7581C2.89434 23.8277 3.07777 23.8463 3.25491 23.8116C3.43204 23.777 3.59494 23.6906 3.72301 23.5634L11.1568 16.1751C11.3598 15.9733 11.6343 15.8601 11.9205 15.8601C12.2066 15.8601 12.4812 15.9733 12.6841 16.1751L20.1093 23.5613C20.2374 23.6884 20.4003 23.7748 20.5774 23.8095C20.7545 23.8441 20.938 23.8255 21.1045 23.7559C21.2711 23.6864 21.4133 23.5691 21.5132 23.4187C21.6131 23.2684 21.6662 23.0918 21.6658 22.9113V5.41588C21.6658 4.55405 21.3235 3.72752 20.7141 3.11812C20.1047 2.50871 19.2781 2.16635 18.4163 2.16635H5.41601Z" fill="#8B5C00"/>
</svg>
