<svg width="65" height="68" viewBox="0 0 65 68" fill="none" xmlns="http://www.w3.org/2000/svg">
<path d="M30.7407 49.4074C28.8267 49.4074 26.9744 48.8314 25.3897 47.7C23.7021 46.5069 22.4673 44.779 21.891 42.8247C19.9358 42.2282 18.207 40.994 17.0133 39.3277C15.511 37.2089 14.9759 34.617 15.511 32.0251C16.2519 28.4252 19.1949 25.5453 22.8377 24.8665C25.2251 24.4345 27.633 24.9076 29.6294 26.2036L41.5868 14.396C40.2079 12.3389 39.7345 9.91158 40.1667 7.52538C40.8253 3.88436 43.7066 0.942748 47.3288 0.202201C49.9014 -0.332637 52.5152 0.202201 54.635 1.70386C56.3226 2.89697 57.5574 4.62491 58.1337 6.57913C60.0889 7.17568 61.8177 8.40992 63.0113 10.0762C64.5137 12.1949 65.0488 14.7868 64.5137 17.3788C63.7728 20.9786 60.8298 23.8585 57.187 24.5374C54.7996 24.9694 52.3917 24.4962 50.3953 23.2003L38.4379 35.0079C39.8168 37.0649 40.2902 39.4923 39.858 41.8785C39.1994 45.5195 36.3181 48.4611 32.6959 49.2017C32.0373 49.3457 31.3787 49.4074 30.7407 49.4074ZM24.5665 28.8367C24.2372 28.8367 23.9079 28.8572 23.5786 28.9189C21.6029 29.2892 19.9564 30.8937 19.5448 32.8479C19.2361 34.3085 19.5448 35.7484 20.368 36.9415C21.1912 38.1141 22.4673 38.8752 23.8873 39.0603C24.8135 39.1837 25.5338 39.9037 25.6573 40.8294C25.8425 42.2282 26.6246 43.5036 27.7771 44.3264C28.9502 45.1698 30.4114 45.4578 31.8727 45.1492C33.8278 44.7378 35.4537 43.0922 35.8036 41.1174C36.0506 39.7803 35.8036 38.4226 35.0627 37.3118C33.9513 35.6044 34.1365 33.4651 35.5154 32.0868L47.4111 20.1969C48.79 18.8187 50.951 18.6336 52.6386 19.7444C53.75 20.4644 55.1083 20.7318 56.4461 20.4849C58.4218 20.1147 60.0683 18.5101 60.4799 16.5559C60.7886 15.0954 60.4799 13.6555 59.6567 12.4624C58.8334 11.2898 57.5574 10.5287 56.1374 10.3436C55.2112 10.2201 54.4909 9.50017 54.3674 8.57449C54.1822 7.17568 53.4001 5.90029 52.2476 5.07746C51.0745 4.23406 49.6133 3.94607 48.152 4.25463C46.1969 4.66605 44.571 6.31171 44.2211 8.2865C43.9741 9.62359 44.2211 10.9813 44.962 12.0921C46.0734 13.7995 45.8882 15.9388 44.5092 17.317L32.6136 29.2069C31.2347 30.5852 29.0737 30.7703 27.3861 29.6595C26.5422 29.1041 25.5749 28.8367 24.5665 28.8367Z" fill="#8B5C00"/>
<g filter="url(#filter0_d_60_2)">
<path d="M57.5555 35.4444V50.9999C57.5555 54.8659 54.4215 57.9999 50.5555 57.9999H13C9.13401 57.9999 6 54.8659 6 50.9999V19.8889C6 16.0229 9.13401 12.8889 13 12.8889H25.3333" stroke="#8B5C00" stroke-width="4" stroke-linecap="round"/>
</g>
<defs>
<filter id="filter0_d_60_2" x="0" y="10.8889" width="63.5555" height="57.1111" filterUnits="userSpaceOnUse" color-interpolation-filters="sRGB">
<feFlood flood-opacity="0" result="BackgroundImageFix"/>
<feColorMatrix in="SourceAlpha" type="matrix" values="0 0 0 0 0 0 0 0 0 0 0 0 0 0 0 0 0 0 127 0" result="hardAlpha"/>
<feOffset dy="4"/>
<feGaussianBlur stdDeviation="2"/>
<feComposite in2="hardAlpha" operator="out"/>
<feColorMatrix type="matrix" values="0 0 0 0 0 0 0 0 0 0 0 0 0 0 0 0 0 0 0.25 0"/>
<feBlend mode="normal" in2="BackgroundImageFix" result="effect1_dropShadow_60_2"/>
<feBlend mode="normal" in="SourceGraphic" in2="effect1_dropShadow_60_2" result="shape"/>
</filter>
</defs>
</svg>
