<svg width="39" height="39" viewBox="0 0 39 39" fill="none" xmlns="http://www.w3.org/2000/svg">
<path d="M37.5685 1.43332C36.9859 0.843651 36.2611 0.414208 35.464 0.186483C34.667 -0.041243 33.8247 -0.0595541 33.0185 0.133318L7.01848 5.60957C5.52117 5.81491 4.11093 6.43422 2.94656 7.39774C1.7822 8.36126 0.909967 9.63072 0.428092 11.0632C-0.053782 12.4956 -0.126159 14.0342 0.219113 15.5055C0.564385 16.9769 1.31359 18.3226 2.38236 19.3912L5.17411 22.1813C5.32521 22.3324 5.44504 22.5117 5.52674 22.7092C5.60844 22.9066 5.6504 23.1182 5.65023 23.3318V28.4798C5.65382 29.2036 5.82045 29.9174 6.13773 30.5679L6.12473 30.5793L6.16698 30.6216C6.64313 31.5789 7.42081 32.3532 8.38023 32.8251L8.42249 32.8673L8.43386 32.8543C9.08445 33.1716 9.79816 33.3382 10.522 33.3418H15.67C16.1007 33.3415 16.5139 33.5121 16.8189 33.8163L19.609 36.6064C20.3573 37.3631 21.248 37.9641 22.2298 38.3749C23.2115 38.7858 24.2648 38.9982 25.329 39.0001C26.2158 38.999 27.0966 38.8541 27.9371 38.5711C29.3565 38.105 30.6173 37.2516 31.5775 36.1071C32.5376 34.9626 33.1589 33.5726 33.3711 32.0938L38.8555 6.03694C39.0584 5.22386 39.0464 4.372 38.8208 3.56493C38.5952 2.75786 38.1636 2.02331 37.5685 1.43332ZM7.47511 19.8868L4.68173 17.0967C4.03128 16.4619 3.57539 15.6547 3.36757 14.7699C3.15976 13.8852 3.20864 12.9594 3.50848 12.1014C3.79919 11.2212 4.33659 10.443 5.05678 9.85937C5.77697 9.27573 6.64963 8.91122 7.57098 8.80919L33.3126 3.38982L8.89699 27.8087V23.3318C8.89945 22.6921 8.77505 22.0583 8.53099 21.4669C8.28693 20.8756 7.92805 20.3386 7.47511 19.8868ZM30.178 31.5381C30.0532 32.4356 29.6808 33.2806 29.1024 33.9782C28.524 34.6758 27.7627 35.1985 26.9038 35.4874C26.0449 35.7763 25.1225 35.8202 24.2401 35.614C23.3577 35.4078 22.5503 34.9597 21.9084 34.3201L19.1134 31.5251C18.6622 31.0714 18.1256 30.7118 17.5345 30.4669C16.9435 30.222 16.3098 30.0967 15.67 30.0983H11.1931L35.612 5.68757L30.178 31.5381Z" fill="#8B5C00"/>
</svg>
