<svg width="36" height="36" viewBox="0 0 36 36" fill="none" xmlns="http://www.w3.org/2000/svg">
<path d="M26.2503 35.9997C25.0246 35.9414 23.813 35.7127 22.6503 35.3202C19.6327 34.2911 16.359 34.2911 13.3413 35.3202C8.39133 37.0902 4.30533 35.3517 4.49133 30.5532C4.50033 23.4612 11.1873 16.4997 18.0003 16.4997C24.8133 16.4997 31.5003 23.4612 31.5003 30.5532C31.5003 33.0372 30.5898 35.9997 26.2503 35.9997ZM32.7663 7.52067C30.7203 7.27617 28.8663 9.21267 28.5453 12.7107C27.8958 20.9727 35.0058 22.0482 35.9568 13.5942C36.2763 10.0977 34.8123 7.76517 32.7663 7.52067ZM0.043832 13.5942C0.996332 22.0497 8.10033 20.9667 7.45533 12.7107C7.13433 9.21267 5.28033 7.27617 3.23433 7.52067C1.18833 7.76517 -0.275668 10.0977 0.043832 13.5942ZM8.96583 6.09417C9.91833 14.5527 17.0268 13.4667 16.3758 5.21067C16.0503 1.71267 14.2023 -0.223832 12.1503 0.0206676C10.0983 0.265168 8.64483 2.59767 8.96583 6.09417ZM23.7663 0.0206676C21.7203 -0.223832 19.8663 1.71267 19.5453 5.21067C18.8958 13.4727 26.0058 14.5482 26.9568 6.09417C27.2763 2.59767 25.8123 0.265168 23.7663 0.0206676Z" fill="#8B5C00"/>
</svg>
