<svg width="39" height="39" viewBox="0 0 39 39" fill="none" xmlns="http://www.w3.org/2000/svg">
<g clip-path="url(#clip0_19_187)">
<path d="M19.5 3.25014C21.6556 3.25721 23.7884 3.69172 25.7749 4.52851C27.7614 5.3653 29.5623 6.58776 31.0733 8.12514H24.375V11.3751H32.7324C33.5325 11.3743 34.2995 11.0561 34.8652 10.4904C35.431 9.92462 35.7492 9.15758 35.75 8.35752V0.000142309H32.5V5.00189C29.7009 2.48129 26.2308 0.826708 22.5102 0.238707C18.7896 -0.349294 14.9783 0.154529 11.5384 1.68911C8.09836 3.22369 5.17735 5.72313 3.12936 8.88449C1.08137 12.0459 -0.00566177 15.7334 2.21769e-05 19.5001H3.25002C3.25475 15.1918 4.96832 11.0613 8.01476 8.01488C11.0612 4.96844 15.1917 3.25487 19.5 3.25014Z" fill="#8B5C00"/>
<path d="M35.75 19.5C35.7547 22.7262 34.7976 25.8805 33.001 28.5602C31.2044 31.2398 28.6498 33.3231 25.6636 34.544C22.6773 35.7648 19.3949 36.0679 16.2357 35.4144C13.0764 34.7608 10.1836 33.1804 7.92675 30.875H14.625V27.625H6.26762C5.46757 27.6259 4.70052 27.9441 4.13479 28.5098C3.56906 29.0755 3.25086 29.8426 3.25 30.6426V39H6.5V33.9983C9.29911 36.5189 12.7693 38.1734 16.4898 38.7614C20.2104 39.3494 24.0217 38.8456 27.4617 37.311C30.9017 35.7765 33.8227 33.277 35.8707 30.1157C37.9186 26.9543 39.0057 23.2668 39 19.5H35.75Z" fill="#8B5C00"/>
</g>
<defs>
<clipPath id="clip0_19_187">
<rect width="39" height="39" fill="white"/>
</clipPath>
</defs>
</svg>
