<svg width="32" height="32" viewBox="0 0 32 32" fill="none" xmlns="http://www.w3.org/2000/svg">
<path d="M31.6094 29.724L23.6507 21.7653C25.8195 19.1128 26.8859 15.7281 26.6291 12.3114C26.3724 8.89472 24.8123 5.70739 22.2715 3.40871C19.7306 1.11003 16.4035 -0.124129 12.9782 -0.0384868C9.55294 0.0471556 6.29162 1.44605 3.86883 3.86883C1.44605 6.29162 0.0471556 9.55294 -0.0384868 12.9782C-0.124129 16.4035 1.11003 19.7306 3.40871 22.2715C5.70739 24.8123 8.89472 26.3724 12.3114 26.6291C15.7281 26.8859 19.1128 25.8195 21.7653 23.6507L29.724 31.6094C29.9755 31.8522 30.3123 31.9866 30.6619 31.9836C31.0115 31.9805 31.3459 31.8403 31.5931 31.5931C31.8403 31.3459 31.9805 31.0115 31.9836 30.6619C31.9866 30.3123 31.8522 29.9755 31.6094 29.724ZM13.3333 24C11.2237 24 9.16139 23.3744 7.40726 22.2024C5.65314 21.0303 4.28597 19.3644 3.47863 17.4153C2.6713 15.4662 2.46006 13.3215 2.87164 11.2524C3.28321 9.18325 4.29912 7.28264 5.79088 5.79088C7.28264 4.29912 9.18325 3.28321 11.2524 2.87164C13.3215 2.46006 15.4662 2.6713 17.4153 3.47863C19.3644 4.28597 21.0303 5.65314 22.2024 7.40726C23.3744 9.16139 24 11.2237 24 13.3333C23.9968 16.1613 22.872 18.8726 20.8723 20.8723C18.8726 22.872 16.1613 23.9968 13.3333 24Z" fill="#8B5C00"/>
</svg>
