<svg width="27" height="24" viewBox="0 0 27 24" fill="none" xmlns="http://www.w3.org/2000/svg">
<path d="M0 22.4604V14.5862C0.00297742 11.9021 1.07057 9.32872 2.96854 7.43075C4.86652 5.53277 7.43987 4.46518 10.124 4.46221H15.5572V2.67813C15.5573 2.23324 15.6893 1.79836 15.9365 1.42847C16.1837 1.05859 16.5351 0.770302 16.9461 0.600061C17.3571 0.42982 17.8094 0.385268 18.2458 0.472037C18.6821 0.558805 19.083 0.772999 19.3976 1.08754L26.0119 7.70076C26.6446 8.33361 27 9.19181 27 10.0867C27 10.9815 26.6446 11.8397 26.0119 12.4725L19.3976 19.0858C19.083 19.4003 18.6821 19.6145 18.2458 19.7013C17.8094 19.788 17.3571 19.7435 16.9461 19.5732C16.5351 19.403 16.1837 19.1147 15.9365 18.7448C15.6893 18.3749 15.5573 17.9401 15.5572 17.4952V15.7111H8.99912C7.20963 15.7129 5.49395 16.4246 4.22859 17.6899C2.96323 18.9553 2.25157 20.671 2.24978 22.4604C2.24978 22.7588 2.13126 23.0449 1.92031 23.2559C1.70935 23.4668 1.42323 23.5853 1.12489 23.5853C0.82655 23.5853 0.54043 23.4668 0.329473 23.2559C0.118515 23.0449 0 22.7588 0 22.4604ZM17.807 5.5871C17.807 5.88544 17.6885 6.17156 17.4775 6.38251C17.2666 6.59347 16.9805 6.71199 16.6821 6.71199H10.124C8.03636 6.71437 6.03491 7.54474 4.55872 9.02092C3.08253 10.4971 2.25216 12.4986 2.24978 14.5862V16.5143C3.09296 15.5547 4.13115 14.786 5.29503 14.2595C6.45891 13.7331 7.7217 13.4609 8.99912 13.4613H16.6821C16.9805 13.4613 17.2666 13.5798 17.4775 13.7908C17.6885 14.0018 17.807 14.2879 17.807 14.5862V17.4952L24.4202 10.882C24.6311 10.671 24.7496 10.3849 24.7496 10.0867C24.7496 9.78837 24.6311 9.50231 24.4202 9.29136L17.807 2.67813V5.5871Z" fill="#8B5C00"/>
</svg>
