<svg width="23" height="27" viewBox="0 0 23 27" fill="none" xmlns="http://www.w3.org/2000/svg">
<path d="M22.75 4.5H17.125V2.25C17.125 1.65326 16.8879 1.08097 16.466 0.65901C16.044 0.237053 15.4717 0 14.875 0L8.125 0C7.52826 0 6.95597 0.237053 6.53401 0.65901C6.11205 1.08097 5.875 1.65326 5.875 2.25V4.5H0.25V6.75H2.5V23.625C2.5 24.5201 2.85558 25.3786 3.48851 26.0115C4.12145 26.6444 4.97989 27 5.875 27H17.125C18.0201 27 18.8785 26.6444 19.5115 26.0115C20.1444 25.3786 20.5 24.5201 20.5 23.625V6.75H22.75V4.5ZM8.125 2.25H14.875V4.5H8.125V2.25ZM18.25 23.625C18.25 23.9234 18.1315 24.2095 17.9205 24.4205C17.7095 24.6315 17.4234 24.75 17.125 24.75H5.875C5.57663 24.75 5.29048 24.6315 5.0795 24.4205C4.86853 24.2095 4.75 23.9234 4.75 23.625V6.75H18.25V23.625Z" fill="#8B5C00"/>
<path d="M10.375 11.25H8.125V20.25H10.375V11.25Z" fill="#8B5C00"/>
<path d="M14.8749 11.25H12.6249V20.25H14.8749V11.25Z" fill="#8B5C00"/>
</svg>
